<?xml version="1.0" encoding="UTF-8"?>
<!DOCTYPE svg PUBLIC "-//W3C//DTD SVG 1.1//EN" "http://www.w3.org/Graphics/SVG/1.1/DTD/svg11.dtd">
<!-- Creator: CorelDRAW (Evaluation Version) -->
<svg xmlns="http://www.w3.org/2000/svg" xml:space="preserve" width="45px" height="45px" version="1.1" style="shape-rendering:geometricPrecision; text-rendering:geometricPrecision; image-rendering:optimizeQuality; fill-rule:evenodd; clip-rule:evenodd"
viewBox="0 0 45 45"
 xmlns:xlink="http://www.w3.org/1999/xlink"
 xmlns:xodm="http://www.corel.com/coreldraw/odm/2003">
 <defs>
  <style type="text/css">
   <![CDATA[
    .str1 {stroke:white;stroke-miterlimit:22.9256}
    .str0 {stroke:white;stroke-width:2;stroke-miterlimit:22.9256}
    .fil0 {fill:none}
   ]]>
  </style>
 </defs>
 <g id="Layer_x0020_1">
  <metadata id="CorelCorpID_0Corel-Layer"/>
  <polyline class="fil0 str0" points="2.5,20.5 21.5,20.5 24.5,23.5 36.5,20.5 29.5,32.5 "/>
  <polyline class="fil0 str0" points="29.5,31.5 9.5,31.5 9.5,20.5 "/>
  <line class="fil0 str0" x1="2.5" y1="20.5" x2="2.5" y2= "14.5" />
  <polyline class="fil0 str0" points="2.5,14.5 9.5,17.5 9.5,20.5 "/>
  <line class="fil0 str0" x1="16.5" y1="17.5" x2="16.5" y2= "20.5" />
  <line class="fil0 str0" x1="13.5" y1="16.5" x2="19.5" y2= "16.5" />
  <path class="fil0 str0" d="M37.5 20.5c1.49,-3.26 1.12,-1.71 2.17,-1.43 0.91,0.24 -0.27,0.93 0.83,1.43"/>
  <path class="fil0 str1" d="M41.5 21.5c-4.88,2.89 1.38,5.7 1.05,1.99 -0.02,-0.24 -1.86,-2.46 -1.05,-0.99"/>
 </g>
</svg>
